# xmcd CD database file
#
# Track frame offsets:
#	150
#	20845
#	47295
#	65477
#	86750
#	112247
#	129385
#	157567
#	167730
#	189892
#	211312
#	226820
#	249742
#	261167
#
# Disc length: 3666 seconds
#
# Revision: 5
# Processed by: cddbd v1.5.1PL0 Copyright (c) Steve Scherf et al.
# Submitted via: CDex 1.51
#
DISCID=b50e500e
DTITLE=Diana Krall - LOVE SCENES
DYEAR=1997
DGENRE=Jazz
TTITLE0=All or Nothing at All
TTITLE1=Peel Me a Grape
TTITLE2=I Don't Know Enough about You
TTITLE3=I Miss You So
TTITLE4=They Can't Take That Away from Me
TTITLE5=Lost Mind
TTITLE6=I Don't Stand a Ghost of a Chance with You
TTITLE7=You're Getting to be a Habit with Me
TTITLE8=Gentle Rain
TTITLE9=How Deep is the Ocean (How High is the Sky)
TTITLE10=My Love Is
TTITLE11=Garden in the Rain
TTITLE12=That Old Feeling
TTITLE13=Another Spring
EXTD=YEAR: 1997
EXTT0=
EXTT1=
EXTT2=
EXTT3=
EXTT4=
EXTT5=
EXTT6=
EXTT7=
EXTT8=
EXTT9=
EXTT10=
EXTT11=
EXTT12=
EXTT13=
PLAYORDER=
